<svg width="76" height="76" viewBox="0 0 76 76" fill="none" xmlns="http://www.w3.org/2000/svg">
<g filter="url(#filter0_d_1353_7592)">
<path d="M33.6392 40.8155H31.1845V40.393C31.1845 36.9852 34.0164 34.2131 37.509 34.2131C39.1748 34.2131 40.7431 34.841 41.9276 35.9802C42.1639 36.2059 42.5391 36.1991 42.7677 35.9638C42.9934 35.7274 42.9857 35.3523 42.7503 35.1256C41.9382 34.3453 40.9708 33.7742 39.9204 33.4251C40.9505 32.6776 41.6286 31.4719 41.6286 30.1041C41.6286 27.8413 39.7873 26 37.5225 26C35.2577 26 33.4155 27.8413 33.4155 30.1041C33.4155 31.4671 34.0897 32.6689 35.114 33.4164C32.1461 34.3974 30 37.1511 30 40.393V41.4077C30 41.7347 30.2652 41.9999 30.5913 41.9999H33.6392C33.9652 41.9999 34.2315 41.7347 34.2315 41.4077C34.2315 41.0807 33.9652 40.8155 33.6392 40.8155ZM34.5989 30.1041C34.5989 28.4943 35.9117 27.1845 37.5225 27.1845C39.1333 27.1845 40.4441 28.4943 40.4441 30.1041C40.4441 31.7169 39.1333 33.0287 37.5225 33.0287C35.9117 33.0287 34.5989 31.7169 34.5989 30.1041Z" fill="#313030"/>
<path d="M37.6929 40.8156H37.1721C36.493 40.8156 35.9403 40.2629 35.9403 39.5839C35.9403 38.9048 36.493 38.3521 37.1721 38.3521H39.7773C40.4563 38.3521 41.01 38.9048 41.01 39.5839C41.01 39.9109 41.2752 40.1761 41.6022 40.1761C41.9292 40.1761 42.1935 39.9109 42.1935 39.5839C42.1935 38.2518 41.1103 37.1677 39.7773 37.1677H37.1721C35.8391 37.1677 34.7559 38.2518 34.7559 39.5839C34.7559 40.9159 35.8391 42.0001 37.1721 42.0001H37.6929C38.0199 42.0001 38.2851 41.7348 38.2851 41.4078C38.2851 41.0808 38.0199 40.8156 37.6929 40.8156Z" fill="#313030"/>
<path d="M43.5839 37.1677H43.0631C42.7361 37.1677 42.4699 37.4329 42.4699 37.7599C42.4699 38.0869 42.7361 38.3521 43.0631 38.3521H43.5839C44.263 38.3521 44.8156 38.9048 44.8156 39.5839C44.8156 40.2629 44.263 40.8156 43.5839 40.8156H40.9777C40.2977 40.8156 39.746 40.2629 39.746 39.5839C39.746 39.2569 39.4808 38.9916 39.1538 38.9916C38.8268 38.9916 38.5615 39.2569 38.5615 39.5839C38.5615 40.9159 39.6457 42.0001 40.9777 42.0001H43.5839C44.916 42.0001 46.0001 40.9159 46.0001 39.5839C46.0001 38.2519 44.916 37.1677 43.5839 37.1677Z" fill="#313030"/>
</g>
<defs>
<filter id="filter0_d_1353_7592" x="-2" y="-2" width="80" height="80" filterUnits="userSpaceOnUse" color-interpolation-filters="sRGB">
<feFlood flood-opacity="0" result="BackgroundImageFix"/>
<feColorMatrix in="SourceAlpha" type="matrix" values="0 0 0 0 0 0 0 0 0 0 0 0 0 0 0 0 0 0 127 0" result="hardAlpha"/>
<feOffset dy="4"/>
<feGaussianBlur stdDeviation="15"/>
<feColorMatrix type="matrix" values="0 0 0 0 0.105977 0 0 0 0 0.0998438 0 0 0 0 0.3375 0 0 0 0.1 0"/>
<feBlend mode="normal" in2="BackgroundImageFix" result="effect1_dropShadow_1353_7592"/>
<feBlend mode="normal" in="SourceGraphic" in2="effect1_dropShadow_1353_7592" result="shape"/>
</filter>
</defs>
</svg>
