<svg width="10" height="12" viewBox="0 0 10 12" fill="none" xmlns="http://www.w3.org/2000/svg">
<path d="M5.05859 0.143555C4.83984 -0.0478516 4.51172 -0.0478516 4.29297 0.143555C1.44922 2.65918 0 4.84668 0 6.67871C0 9.60449 2.21484 11.4639 4.67578 11.4639C7.13672 11.4639 9.35156 9.60449 9.35156 6.67871C9.35156 4.84668 7.90234 2.65918 5.05859 0.143555ZM2.24219 6.81543C2.46094 6.81543 2.625 6.95215 2.67969 7.1709C2.92578 8.45605 3.99219 8.89355 4.78516 8.83887C5.05859 8.83887 5.25 9.03027 5.25 9.27637C5.25 9.52246 5.08594 9.71387 4.83984 9.71387C3.60938 9.7959 2.13281 9.08496 1.80469 7.30762C1.77734 7.06152 1.96875 6.81543 2.24219 6.81543Z" fill="#10B981"/>
</svg>
