<svg width="32" height="32" viewBox="0 0 32 32" fill="none" xmlns="http://www.w3.org/2000/svg">
<rect width="32" height="32" rx="12" fill="#835B3A"/>
<path d="M10.375 10.375C10.375 10.1016 10.2871 9.87695 10.1113 9.70117C9.93555 9.52539 9.71094 9.4375 9.4375 9.4375C9.16406 9.4375 8.93945 9.52539 8.76367 9.70117C8.58789 9.87695 8.5 10.1016 8.5 10.375V20.2188C8.51953 20.8828 8.74414 21.4395 9.17383 21.8887C9.62305 22.3184 10.1797 22.543 10.8438 22.5625H22.5625C22.8359 22.5625 23.0605 22.4746 23.2363 22.2988C23.4121 22.123 23.5 21.8984 23.5 21.625C23.5 21.3516 23.4121 21.127 23.2363 20.9512C23.0605 20.7754 22.8359 20.6875 22.5625 20.6875H10.8438C10.5508 20.668 10.3945 20.5117 10.375 20.2188V10.375ZM22.2988 12.9238C22.4746 12.7285 22.5625 12.5039 22.5625 12.25C22.5625 11.9961 22.4746 11.7715 22.2988 11.5762C22.1035 11.4004 21.8789 11.3125 21.625 11.3125C21.3711 11.3125 21.1465 11.4004 20.9512 11.5762L17.875 14.6816L16.2051 12.9824C16.0098 12.8066 15.7852 12.7188 15.5312 12.7188C15.2773 12.7188 15.0527 12.8066 14.8574 12.9824L11.5762 16.2637C11.4004 16.459 11.3125 16.6836 11.3125 16.9375C11.3125 17.1914 11.4004 17.416 11.5762 17.6113C11.7715 17.7871 11.9961 17.875 12.25 17.875C12.5039 17.875 12.7285 17.7871 12.9238 17.6113L15.5312 14.9746L17.2012 16.6738C17.3965 16.8496 17.6211 16.9375 17.875 16.9375C18.1289 16.9375 18.3535 16.8496 18.5488 16.6738L22.2988 12.9238Z" fill="#FFECD0"/>
</svg>
